%TF.GenerationSoftware,KiCad,Pcbnew,(6.0.4-0)*%
%TF.CreationDate,2022-08-04T12:42:01-05:00*%
%TF.ProjectId,pixel-frame-adapter,70697865-6c2d-4667-9261-6d652d616461,rev?*%
%TF.SameCoordinates,Original*%
%TF.FileFunction,Soldermask,Top*%
%TF.FilePolarity,Negative*%
%FSLAX46Y46*%
G04 Gerber Fmt 4.6, Leading zero omitted, Abs format (unit mm)*
G04 Created by KiCad (PCBNEW (6.0.4-0)) date 2022-08-04 12:42:01*
%MOMM*%
%LPD*%
G01*
G04 APERTURE LIST*
G04 Aperture macros list*
%AMFreePoly0*
4,1,22,0.500000,-0.750000,0.000000,-0.750000,0.000000,-0.745033,-0.079941,-0.743568,-0.215256,-0.701293,-0.333266,-0.622738,-0.424486,-0.514219,-0.481581,-0.384460,-0.499164,-0.250000,-0.500000,-0.250000,-0.500000,0.250000,-0.499164,0.250000,-0.499963,0.256109,-0.478152,0.396186,-0.417904,0.524511,-0.324060,0.630769,-0.204165,0.706417,-0.067858,0.745374,0.000000,0.744959,0.000000,0.750000,
0.500000,0.750000,0.500000,-0.750000,0.500000,-0.750000,$1*%
%AMFreePoly1*
4,1,20,0.000000,0.744959,0.073905,0.744508,0.209726,0.703889,0.328688,0.626782,0.421226,0.519385,0.479903,0.390333,0.500000,0.250000,0.500000,-0.250000,0.499851,-0.262216,0.476331,-0.402017,0.414519,-0.529596,0.319384,-0.634700,0.198574,-0.708877,0.061801,-0.746166,0.000000,-0.745033,0.000000,-0.750000,-0.500000,-0.750000,-0.500000,0.750000,0.000000,0.750000,0.000000,0.744959,
0.000000,0.744959,$1*%
G04 Aperture macros list end*
%ADD10C,1.524000*%
%ADD11FreePoly0,180.000000*%
%ADD12FreePoly1,180.000000*%
G04 APERTURE END LIST*
D10*
%TO.C,U3*%
X148844000Y-107042204D03*
X148844000Y-104502204D03*
X148844000Y-101962204D03*
X148844000Y-99422204D03*
X148844000Y-96882204D03*
X148844000Y-94342204D03*
X136144000Y-94342204D03*
X136144000Y-96882204D03*
X136144000Y-99422204D03*
X136144000Y-101962204D03*
X136144000Y-104502204D03*
X136144000Y-107042204D03*
%TD*%
%TO.C,U2*%
X168681400Y-120370600D03*
X168681400Y-117830600D03*
X168681400Y-115290600D03*
X168681400Y-112750600D03*
X168681400Y-110210600D03*
X168681400Y-107670600D03*
X168681400Y-105130600D03*
X168681400Y-102590600D03*
X168681400Y-100050600D03*
X168681400Y-97510600D03*
X168681400Y-94970600D03*
X168681400Y-92430600D03*
X168681400Y-89890600D03*
X168681400Y-87350600D03*
X166141400Y-87350600D03*
X163601400Y-87350600D03*
X161061400Y-87350600D03*
X158521400Y-87350600D03*
X155981400Y-87350600D03*
X153441400Y-87350600D03*
X153441400Y-89890600D03*
X153441400Y-92430600D03*
X153441400Y-94970600D03*
X153441400Y-97510600D03*
X153441400Y-100050600D03*
X153441400Y-102590600D03*
X153441400Y-105130600D03*
X153441400Y-107670600D03*
X153441400Y-110210600D03*
X153441400Y-112750600D03*
X153441400Y-115290600D03*
X153441400Y-117830600D03*
X153441400Y-120370600D03*
%TD*%
%TO.C,U1*%
X132867400Y-114662204D03*
X132867400Y-112122204D03*
X132867400Y-109582204D03*
X132867400Y-107042204D03*
X132867400Y-104502204D03*
X132867400Y-101962204D03*
X132867400Y-99422204D03*
X132867400Y-96882204D03*
X132867400Y-94342204D03*
X132867400Y-91802204D03*
X132867400Y-89262204D03*
X132867400Y-86722204D03*
%TD*%
D11*
%TO.C,JP1*%
X141772400Y-85699600D03*
D12*
X140472400Y-85699600D03*
%TD*%
M02*
