%TF.GenerationSoftware,KiCad,Pcbnew,(6.0.4-0)*%
%TF.CreationDate,2022-08-04T12:42:01-05:00*%
%TF.ProjectId,pixel-frame-adapter,70697865-6c2d-4667-9261-6d652d616461,rev?*%
%TF.SameCoordinates,Original*%
%TF.FileFunction,Soldermask,Bot*%
%TF.FilePolarity,Negative*%
%FSLAX46Y46*%
G04 Gerber Fmt 4.6, Leading zero omitted, Abs format (unit mm)*
G04 Created by KiCad (PCBNEW (6.0.4-0)) date 2022-08-04 12:42:01*
%MOMM*%
%LPD*%
G01*
G04 APERTURE LIST*
%ADD10C,1.524000*%
G04 APERTURE END LIST*
D10*
%TO.C,U3*%
X148844000Y-107042204D03*
X148844000Y-104502204D03*
X148844000Y-101962204D03*
X148844000Y-99422204D03*
X148844000Y-96882204D03*
X148844000Y-94342204D03*
X136144000Y-94342204D03*
X136144000Y-96882204D03*
X136144000Y-99422204D03*
X136144000Y-101962204D03*
X136144000Y-104502204D03*
X136144000Y-107042204D03*
%TD*%
%TO.C,U2*%
X168681400Y-120370600D03*
X168681400Y-117830600D03*
X168681400Y-115290600D03*
X168681400Y-112750600D03*
X168681400Y-110210600D03*
X168681400Y-107670600D03*
X168681400Y-105130600D03*
X168681400Y-102590600D03*
X168681400Y-100050600D03*
X168681400Y-97510600D03*
X168681400Y-94970600D03*
X168681400Y-92430600D03*
X168681400Y-89890600D03*
X168681400Y-87350600D03*
X166141400Y-87350600D03*
X163601400Y-87350600D03*
X161061400Y-87350600D03*
X158521400Y-87350600D03*
X155981400Y-87350600D03*
X153441400Y-87350600D03*
X153441400Y-89890600D03*
X153441400Y-92430600D03*
X153441400Y-94970600D03*
X153441400Y-97510600D03*
X153441400Y-100050600D03*
X153441400Y-102590600D03*
X153441400Y-105130600D03*
X153441400Y-107670600D03*
X153441400Y-110210600D03*
X153441400Y-112750600D03*
X153441400Y-115290600D03*
X153441400Y-117830600D03*
X153441400Y-120370600D03*
%TD*%
%TO.C,U1*%
X132867400Y-114662204D03*
X132867400Y-112122204D03*
X132867400Y-109582204D03*
X132867400Y-107042204D03*
X132867400Y-104502204D03*
X132867400Y-101962204D03*
X132867400Y-99422204D03*
X132867400Y-96882204D03*
X132867400Y-94342204D03*
X132867400Y-91802204D03*
X132867400Y-89262204D03*
X132867400Y-86722204D03*
%TD*%
M02*
