M48
; DRILL file {KiCad (6.0.4-0)} date Thursday, August 04, 2022 at 12:41:58 PM
; FORMAT={-:-/ absolute / inch / decimal}
; #@! TF.CreationDate,2022-08-04T12:41:58-05:00
; #@! TF.GenerationSoftware,Kicad,Pcbnew,(6.0.4-0)
; #@! TF.FileFunction,Plated,1,2,PTH
FMAT,2
INCH
; #@! TA.AperFunction,Plated,PTH,ViaDrill
T1C0.0157
; #@! TA.AperFunction,Plated,PTH,ViaDrill
T2C0.0160
; #@! TA.AperFunction,Plated,PTH,ComponentDrill
T3C0.0300
%
G90
G05
T1
X5.86Y-3.439
X6.322Y-4.574
T2
X5.472Y-4.389
X5.505Y-3.865
X5.516Y-4.425
X5.561Y-4.559
X5.615Y-3.765
X5.615Y-3.981
X5.658Y-3.639
X5.658Y-4.079
X5.7Y-3.539
X5.7Y-4.189
X5.742Y-3.374
X5.742Y-4.264
X5.791Y-3.961
X5.791Y-4.164
X6.127Y-3.686
X6.127Y-4.389
X6.218Y-3.576
X6.219Y-4.489
X6.326Y-3.766
T3
X5.231Y-3.4143
X5.231Y-3.5143
X5.231Y-3.6143
X5.231Y-3.7143
X5.231Y-3.8143
X5.231Y-3.9143
X5.231Y-4.0143
X5.231Y-4.1143
X5.231Y-4.2143
X5.231Y-4.3143
X5.231Y-4.4143
X5.231Y-4.5143
X5.36Y-3.7143
X5.36Y-3.8143
X5.36Y-3.9143
X5.36Y-4.0143
X5.36Y-4.1143
X5.36Y-4.2143
X5.86Y-3.7143
X5.86Y-3.8143
X5.86Y-3.9143
X5.86Y-4.0143
X5.86Y-4.1143
X5.86Y-4.2143
X6.041Y-3.439
X6.041Y-3.539
X6.041Y-3.639
X6.041Y-3.739
X6.041Y-3.839
X6.041Y-3.939
X6.041Y-4.039
X6.041Y-4.139
X6.041Y-4.239
X6.041Y-4.339
X6.041Y-4.439
X6.041Y-4.539
X6.041Y-4.639
X6.041Y-4.739
X6.141Y-3.439
X6.241Y-3.439
X6.341Y-3.439
X6.441Y-3.439
X6.541Y-3.439
X6.641Y-3.439
X6.641Y-3.539
X6.641Y-3.639
X6.641Y-3.739
X6.641Y-3.839
X6.641Y-3.939
X6.641Y-4.039
X6.641Y-4.139
X6.641Y-4.239
X6.641Y-4.339
X6.641Y-4.439
X6.641Y-4.539
X6.641Y-4.639
X6.641Y-4.739
T0
M30
